<svg width="28" height="31" viewBox="0 0 28 31" fill="none" xmlns="http://www.w3.org/2000/svg">
<path d="M27.5789 14.4099V7.80062C27.5789 6.56608 26.6455 5.16593 25.4862 4.69921L17.1004 1.26659C15.2133 0.498703 13.1008 0.498703 11.2137 1.26659L2.82789 4.69921C1.68368 5.16593 0.750244 6.56608 0.750244 7.80062V14.4099C0.750244 21.772 6.0949 28.6674 13.3968 30.6848C13.8936 30.8203 14.4356 30.8203 14.9324 30.6848C22.2343 28.6674 27.5789 21.772 27.5789 14.4099ZM15.2937 17.0446V21.0042C15.2937 21.6215 14.7819 22.1333 14.1646 22.1333C13.5473 22.1333 13.0354 21.6215 13.0354 21.0042V17.0446C12.2746 16.8061 11.6094 16.3319 11.1358 15.6905C10.6622 15.0491 10.4048 14.2738 10.4007 13.4765C10.4007 12.4783 10.7973 11.5209 11.5031 10.8151C12.209 10.1092 13.1663 9.71265 14.1646 9.71265C15.1628 9.71265 16.1202 10.1092 16.826 10.8151C17.5319 11.5209 17.9284 12.4783 17.9284 13.4765C17.9284 15.1627 16.8143 16.5628 15.2937 17.0446Z" fill="white"/>
</svg>
