<svg width="24" height="24" viewBox="0 0 24 24" fill="none" xmlns="http://www.w3.org/2000/svg">
<g id="Frame">
<path id="Vector" d="M20.0261 17.0008C17.2641 21.7848 11.1471 23.4238 6.36312 20.6618C5.07681 19.921 3.97224 18.9022 3.13012 17.6798C3.06487 17.5852 3.02224 17.4768 3.00553 17.3631C2.98882 17.2494 2.99847 17.1333 3.03375 17.0239C3.06902 16.9145 3.12898 16.8147 3.20898 16.7321C3.28897 16.6496 3.38688 16.5865 3.49512 16.5478C7.26212 15.1998 9.28012 13.6378 10.4511 11.4018C11.6831 9.04883 12.0021 6.47183 11.1401 2.93883C11.1123 2.82512 11.1115 2.70648 11.1378 2.5924C11.1641 2.47833 11.2167 2.37199 11.2914 2.28189C11.3662 2.19179 11.461 2.12044 11.5682 2.07355C11.6755 2.02666 11.7922 2.00552 11.9091 2.01183C13.4787 2.09632 15.006 2.55104 16.3661 3.33883C21.1501 6.10083 22.7891 12.2178 20.0261 17.0008Z" fill="#2471E4"/>
</g>
</svg>
