<svg width="24" height="24" viewBox="0 0 24 24" fill="none" xmlns="http://www.w3.org/2000/svg">
<g id="Frame">
<path id="Vector" d="M11.9961 18.5322C12.241 18.5322 12.4774 18.6221 12.6604 18.7849C12.8435 18.9477 12.9604 19.1719 12.9891 19.4152L12.9961 19.5322V20.9882C12.9955 21.243 12.8978 21.488 12.7227 21.6731C12.5477 21.8582 12.3085 21.9696 12.0542 21.9844C11.7998 21.9992 11.5494 21.9164 11.354 21.7528C11.1587 21.5892 11.0332 21.3572 11.0031 21.1042L10.9961 20.9882V19.5322C10.9961 19.267 11.1014 19.0126 11.289 18.8251C11.4765 18.6375 11.7308 18.5322 11.9961 18.5322ZM18.0331 16.6002L19.0631 17.6302C19.2451 17.8189 19.3457 18.0716 19.3433 18.3338C19.3408 18.596 19.2354 18.8467 19.0499 19.032C18.8644 19.2173 18.6135 19.3223 18.3513 19.3244C18.0891 19.3265 17.8365 19.2255 17.6481 19.0432L16.6181 18.0142C16.4306 17.8265 16.3253 17.5721 16.3254 17.3068C16.3255 17.0416 16.4309 16.7872 16.6186 16.5997C16.8062 16.4122 17.0606 16.3069 17.3259 16.307C17.5912 16.3071 17.8456 16.4125 18.0331 16.6002ZM7.37306 16.6002C7.56053 16.7877 7.66585 17.042 7.66585 17.3072C7.66585 17.5723 7.56053 17.8267 7.37306 18.0142L6.34406 19.0442C6.15642 19.2317 5.90198 19.337 5.63671 19.3369C5.37144 19.3368 5.11707 19.2313 4.92956 19.0437C4.74205 18.856 4.63677 18.6016 4.63686 18.3363C4.63695 18.0711 4.74242 17.8167 4.93006 17.6292L5.96006 16.5992C6.14755 16.412 6.40164 16.3069 6.66656 16.3069C6.93148 16.3069 7.18558 16.413 7.37306 16.6002ZM12.0101 6.47218C13.4754 6.47218 14.8807 7.05428 15.9168 8.09042C16.953 9.12656 17.5351 10.5319 17.5351 11.9972C17.5351 13.4625 16.953 14.8678 15.9168 15.9039C14.8807 16.9401 13.4754 17.5222 12.0101 17.5222C10.5447 17.5222 9.13944 16.9401 8.1033 15.9039C7.06716 14.8678 6.48506 13.4625 6.48506 11.9972C6.48506 10.5319 7.06716 9.12656 8.1033 8.09042C9.13944 7.05428 10.5447 6.47218 12.0101 6.47218ZM20.9781 11.0182C21.2329 11.0185 21.4781 11.1161 21.6634 11.291C21.8488 11.466 21.9603 11.7051 21.9752 11.9596C21.9902 12.214 21.9074 12.4646 21.7438 12.66C21.5802 12.8555 21.3482 12.9811 21.0951 13.0112L20.9781 13.0182H19.5221C19.2673 13.0176 19.0223 12.9199 18.8371 12.7448C18.652 12.5698 18.5407 12.3307 18.5258 12.0763C18.511 11.8219 18.5939 11.5715 18.7575 11.3762C18.9211 11.1808 19.153 11.0553 19.4061 11.0252L19.5221 11.0182H20.9781ZM4.47906 10.9902C4.73386 10.9907 4.97884 11.0885 5.16398 11.2635C5.34913 11.4386 5.46047 11.6777 5.47528 11.9321C5.49008 12.1864 5.40723 12.4369 5.24365 12.6322C5.08006 12.8276 4.84807 12.9531 4.59506 12.9832L4.47906 12.9902H3.02306C2.76818 12.9899 2.52303 12.8923 2.33769 12.7173C2.15236 12.5424 2.04083 12.3032 2.02589 12.0488C2.01095 11.7943 2.09374 11.5438 2.25733 11.3484C2.42092 11.1529 2.65297 11.0273 2.90606 10.9972L3.02306 10.9902H4.47906ZM6.24906 4.87418L6.34406 4.95718L7.37406 5.98718C7.55341 6.16714 7.65754 6.40862 7.66529 6.66257C7.67305 6.91652 7.58385 7.1639 7.41581 7.35446C7.24778 7.54503 7.01351 7.66449 6.76059 7.68858C6.50766 7.71268 6.25505 7.6396 6.05406 7.48418L5.95806 7.40018L4.93006 6.37118C4.75071 6.19123 4.64659 5.94975 4.63883 5.6958C4.63108 5.44185 4.72028 5.19447 4.88831 5.0039C5.05634 4.81334 5.29061 4.69388 5.54354 4.66978C5.79646 4.64569 6.04807 4.71877 6.24906 4.87418ZM19.0621 4.95718C19.2342 5.12938 19.3377 5.35848 19.353 5.6015C19.3682 5.84453 19.2943 6.08478 19.1451 6.27718L19.0621 6.37118L18.0321 7.40118C17.8521 7.58053 17.6106 7.68466 17.3567 7.69241C17.1027 7.70017 16.8553 7.61097 16.6648 7.44293C16.4742 7.2749 16.3548 7.04063 16.3307 6.78771C16.3066 6.53479 16.3797 6.28218 16.5351 6.08118L16.6191 5.98618L17.6481 4.95618C17.8356 4.76871 18.0899 4.6634 18.3551 4.6634C18.6202 4.6634 18.8745 4.76971 19.0621 4.95718ZM12.0001 2.01318C12.245 2.01322 12.4814 2.10314 12.6644 2.2659C12.8475 2.42866 12.9644 2.65293 12.9931 2.89618L13.0001 3.01318V4.46818C12.9998 4.72306 12.9022 4.96822 12.7272 5.15355C12.5522 5.33889 12.3131 5.45042 12.0587 5.46536C11.8042 5.48029 11.5537 5.39751 11.3582 5.23392C11.1628 5.07033 11.0372 4.83828 11.0071 4.58518L11.0001 4.46818V3.01318C11.0001 2.74797 11.1054 2.49361 11.293 2.30608C11.4805 2.11854 11.7348 2.01318 12.0001 2.01318Z" fill="#2471E4"/>
</g>
</svg>
