<svg width="60" height="60" viewBox="0 0 60 60" fill="none" xmlns="http://www.w3.org/2000/svg">
<g clip-path="url(#clip0_81_1821)">
<path d="M30.0012 60.0024C46.5704 60.0024 60.0024 46.5704 60.0024 30.0012C60.0024 13.432 46.5704 0 30.0012 0C13.432 0 0 13.432 0 30.0012C0 46.5704 13.432 60.0024 30.0012 60.0024Z" fill="#616161"/>
<path d="M30.0012 49.0922C19.4561 49.0922 10.9102 40.5464 10.9102 30.0012C10.9102 19.4561 19.4561 10.9102 30.0012 10.9102C35.2714 10.9102 40.0435 13.0473 43.5005 16.5019L51.2148 8.78762C45.7851 3.35791 38.2836 0 30.0012 0C13.4316 0 0 13.4316 0 30.0012C0 46.5708 13.4316 60.0024 30.0012 60.0024C38.286 60.0024 45.7851 56.6445 51.2172 51.2172L43.503 43.503C40.0435 46.9552 35.2714 49.0922 30.0012 49.0922Z" fill="#9E9E9E"/>
<path d="M49.0923 30.0013H39.5456C39.5456 24.7312 35.2715 20.4546 29.9989 20.4546C24.7263 20.4546 20.4546 24.7287 20.4546 30.0013C20.4546 32.5687 21.4699 34.8968 23.1211 36.6156L23.1138 36.6229L34.933 48.442L34.9354 48.4444C43.0873 46.2687 49.0923 38.8373 49.0923 30.0013Z" fill="#424242"/>
<path d="M60 30.0012H49.0898C49.0898 38.8372 43.0823 46.2686 34.9353 48.4443L43.3603 56.8693C53.2237 51.9546 60 41.7696 60 30.0012Z" fill="#616161"/>
<path d="M30.0012 59.6592C13.4897 59.6592 0.0967001 46.3194 0.00241751 29.8296C0.00241751 29.8876 0 29.9432 0 30.0012C0 46.5708 13.4316 60.0024 30.0012 60.0024C46.5708 60.0024 60.0024 46.5708 60.0024 30.0012C60.0024 29.9432 60 29.8876 60 29.8296C59.9057 46.3194 46.5103 59.6592 30.0012 59.6592Z" fill="#212121" fill-opacity="0.1"/>
<path d="M34.9377 48.4444L35.2037 48.7103C43.2153 46.4475 49.0922 39.0838 49.0922 30.3421V30.0012C49.0922 38.8372 43.0847 46.2686 34.9377 48.4444Z" fill="white" fill-opacity="0.05"/>
<path d="M54.5475 27.2732H30.0001C28.494 27.2732 27.2732 28.494 27.2732 30.0001C27.2732 31.5062 28.494 32.7271 30.0001 32.7271H54.545C56.0511 32.7271 57.272 31.5062 57.272 30.0001C57.2744 28.494 56.0536 27.2732 54.5475 27.2732Z" fill="#9E9E9E"/>
<path opacity="0.5" d="M54.5475 27.2732H30.0001C28.494 27.2732 27.2732 28.494 27.2732 30.0001C27.2732 31.5062 28.494 32.7271 30.0001 32.7271H54.545C56.0511 32.7271 57.272 31.5062 57.272 30.0001C57.2744 28.494 56.0536 27.2732 54.5475 27.2732Z" fill="#BDBDBD"/>
<path d="M5.4539 32.0465C6.58344 32.0465 7.49911 31.1308 7.49911 30.0013C7.49911 28.8717 6.58344 27.9561 5.4539 27.9561C4.32436 27.9561 3.40869 28.8717 3.40869 30.0013C3.40869 31.1308 4.32436 32.0465 5.4539 32.0465Z" fill="#BDBDBD"/>
<path d="M30.0013 7.49911C31.1308 7.49911 32.0465 6.58344 32.0465 5.4539C32.0465 4.32436 31.1308 3.40869 30.0013 3.40869C28.8717 3.40869 27.9561 4.32436 27.9561 5.4539C27.9561 6.58344 28.8717 7.49911 30.0013 7.49911Z" fill="#BDBDBD"/>
<path d="M30.0013 56.5914C31.1308 56.5914 32.0465 55.6757 32.0465 54.5462C32.0465 53.4166 31.1308 52.501 30.0013 52.501C28.8717 52.501 27.9561 53.4166 27.9561 54.5462C27.9561 55.6757 28.8717 56.5914 30.0013 56.5914Z" fill="#BDBDBD"/>
<path d="M12.6145 14.6888C13.7441 14.6888 14.6598 13.7731 14.6598 12.6436C14.6598 11.5141 13.7441 10.5984 12.6145 10.5984C11.485 10.5984 10.5693 11.5141 10.5693 12.6436C10.5693 13.7731 11.485 14.6888 12.6145 14.6888Z" fill="#BDBDBD"/>
<path d="M12.6145 49.4332C13.7441 49.4332 14.6598 48.5175 14.6598 47.388C14.6598 46.2584 13.7441 45.3428 12.6145 45.3428C11.485 45.3428 10.5693 46.2584 10.5693 47.388C10.5693 48.5175 11.485 49.4332 12.6145 49.4332Z" fill="#BDBDBD"/>
<path d="M47.388 49.4332C48.5175 49.4332 49.4332 48.5175 49.4332 47.388C49.4332 46.2584 48.5175 45.3428 47.388 45.3428C46.2584 45.3428 45.3428 46.2584 45.3428 47.388C45.3428 48.5175 46.2584 49.4332 47.388 49.4332Z" fill="#757575"/>
<path d="M30.0011 27.615H54.546C55.9941 27.615 57.1787 28.7464 57.2633 30.1728C57.2657 30.1147 57.273 30.0591 57.273 30.0011C57.273 28.495 56.0521 27.2742 54.546 27.2742H30.0011C28.495 27.2742 27.2742 28.495 27.2742 30.0011C27.2742 30.0591 27.2766 30.1147 27.2838 30.1728C27.3685 28.7464 28.5506 27.615 30.0011 27.615Z" fill="white" fill-opacity="0.2"/>
<path d="M57.2633 30.1704C57.1738 31.5943 55.9917 32.7281 54.546 32.7281H30.0011C28.553 32.7281 27.3685 31.5967 27.2838 30.1704C27.2766 30.2284 27.2742 30.284 27.2742 30.3396C27.2742 31.8457 28.495 33.0666 30.0011 33.0666H54.546C56.0521 33.0666 57.273 31.8457 57.273 30.3396C57.273 30.284 57.2705 30.2284 57.2633 30.1704Z" fill="#212121" fill-opacity="0.2"/>
<path d="M30.0012 11.251C35.2713 11.251 40.0435 13.3881 43.5005 16.8427L51.3816 8.9568C51.3235 8.89878 51.2679 8.84076 51.2123 8.78516L43.5005 16.4994C40.0435 13.0448 35.2713 10.9077 30.0012 10.9077C19.456 10.9077 10.9102 19.4536 10.9102 29.9987C10.9102 30.0568 10.9126 30.1124 10.9126 30.1704C11.0044 19.705 19.514 11.251 30.0012 11.251Z" fill="#212121" fill-opacity="0.1"/>
<path d="M30.0012 60.0024C46.5704 60.0024 60.0024 46.5704 60.0024 30.0012C60.0024 13.432 46.5704 0 30.0012 0C13.432 0 0 13.432 0 30.0012C0 46.5704 13.432 60.0024 30.0012 60.0024Z" fill="url(#paint0_radial_81_1821)"/>
</g>
<defs>
<radialGradient id="paint0_radial_81_1821" cx="0" cy="0" r="1" gradientUnits="userSpaceOnUse" gradientTransform="translate(8.79804 8.72972) scale(59.8988)">
<stop stop-color="white" stop-opacity="0.1"/>
<stop offset="1" stop-color="white" stop-opacity="0"/>
</radialGradient>
<clipPath id="clip0_81_1821">
<rect width="60" height="60" fill="white"/>
</clipPath>
</defs>
</svg>
