<svg width="48" height="49" viewBox="0 0 48 49" fill="none" xmlns="http://www.w3.org/2000/svg">
<path d="M47.9775 25.0221C47.9775 23.0095 47.8142 21.5408 47.4608 20.0177H24.4785V29.1017H37.9686C37.6967 31.3592 36.228 34.759 32.9642 37.0435L32.9185 37.3476L40.185 42.9769L40.6885 43.0271C45.312 38.757 47.9775 32.4743 47.9775 25.0221Z" fill="#4285F4"/>
<path d="M24.4785 48.9563C31.0875 48.9563 36.6358 46.7804 40.6885 43.0272L32.9642 37.0435C30.8972 38.485 28.123 39.4913 24.4785 39.4913C18.0055 39.4913 12.5115 35.2214 10.5531 29.3195L10.266 29.3438L2.71014 35.1914L2.61133 35.4661C6.63658 43.4622 14.9048 48.9563 24.4785 48.9563Z" fill="#34A853"/>
<path d="M10.5527 29.3193C10.0359 27.7963 9.73687 26.1643 9.73687 24.4781C9.73687 22.7917 10.0359 21.1599 10.5255 19.6368L10.5118 19.3125L2.86125 13.371L2.61094 13.49C0.951938 16.8082 0 20.5344 0 24.4781C0 28.4218 0.951938 32.1478 2.61094 35.466L10.5527 29.3193Z" fill="#FBBC05"/>
<path d="M24.4785 9.46481C29.0749 9.46481 32.1754 11.4502 33.9433 13.1094L40.8516 6.36431C36.6088 2.42062 31.0875 0 24.4785 0C14.9048 0 6.63658 5.49394 2.61133 13.4901L10.5259 19.6369C12.5115 13.7349 18.0055 9.46481 24.4785 9.46481Z" fill="#EB4335"/>
</svg>
